<svg width="20" height="20" viewBox="0 0 20 20" fill="none" xmlns="http://www.w3.org/2000/svg">
<path d="M19.7025 4.11417C19.0067 4.4225 18.2592 4.63083 17.4733 4.725C18.275 4.245 18.89 3.48333 19.18 2.57667C18.43 3.02167 17.5992 3.345 16.715 3.51833C16.0067 2.765 14.9983 2.29333 13.8817 2.29333C11.7383 2.29333 9.99999 4.03167 9.99999 6.17667C9.99999 6.48 10.035 6.775 10.1 7.06C6.87249 6.8975 4.01332 5.35167 2.09832 3.00333C1.76499 3.57833 1.57332 4.245 1.57332 4.955C1.57332 6.30167 2.25916 7.49084 3.29999 8.18667C2.66332 8.16584 2.06499 7.99167 1.54166 7.70084V7.75083C1.54166 9.63167 2.87916 11.2008 4.65582 11.5575C4.32916 11.6458 3.98666 11.6925 3.63332 11.6925C3.38332 11.6925 3.13916 11.6692 2.90249 11.6242C3.39666 13.1658 4.82999 14.2892 6.52916 14.3192C5.19999 15.3608 3.52582 15.9817 1.70749 15.9817C1.39416 15.9817 1.08499 15.9633 0.780823 15.9275C2.49916 17.03 4.53916 17.6717 6.73082 17.6717C13.8725 17.6717 17.7767 11.7567 17.7767 6.62667C17.7767 6.46 17.7725 6.29167 17.765 6.125C18.5233 5.57667 19.1817 4.89417 19.7008 4.11667L19.7025 4.11417Z" fill="#505050"/>
</svg>
