<svg width="15" height="15" viewBox="0 0 15 15" fill="none" xmlns="http://www.w3.org/2000/svg">
<path fill-rule="evenodd" clip-rule="evenodd" d="M10.0126 1.42678C10.696 0.743359 11.804 0.743361 12.4874 1.42678L13.5732 2.51257C14.2566 3.19598 14.2566 4.30402 13.5732 4.98744L4.96352 13.5971C4.75322 13.8074 4.4928 13.9606 4.20684 14.0423L0.956001 14.9711C0.694101 15.046 0.412231 14.9729 0.219631 14.7803C0.0270315 14.5877 -0.0460116 14.3059 0.0288113 14.044L0.957631 10.7931C1.03933 10.5072 1.19256 10.2467 1.40286 10.0364L10.0126 1.42678ZM11.4268 2.48744C11.3291 2.38981 11.1708 2.38981 11.0732 2.48744L9.81057 3.75L11.25 5.18934L12.5126 3.92678C12.6102 3.82915 12.6102 3.67086 12.5126 3.57323L11.4268 2.48744ZM10.1893 6.25L8.74996 4.81066L2.46352 11.0971C2.43348 11.1271 2.41159 11.1643 2.39991 11.2052L1.84197 13.158L3.79476 12.6C3.83561 12.5884 3.87281 12.5665 3.90286 12.5364L10.1893 6.25Z" fill="black"/>
</svg>
